# xmcd CD database file
#
# Track frame offsets:
#	150
#	20168
#	38571
#	62146
#	78024
#	90459
#	106527
#	123745
#	140540
#	169343
#	194906
#	212489
#	233115
#
# Disc length: 3344 seconds
#
# Revision: 1
# Processed by: cddbd v1.5.2PL0 Copyright (c) Steve Scherf et al.
# Submitted via: cdripper 1.0.8
#
DISCID=ae0d0e0d
DTITLE=BEN HARPER - The Best So Far - Ben Harper - 2007 - The Best So Far
DYEAR=2007
DGENRE=Pop
TTITLE0=Diamonds on the Inside
TTITLE1=Steal My Kisses
TTITLE2=Sexual Healing
TTITLE3=Burn on Down
TTITLE4=Both Sides of The Gun
TTITLE5=Waiting for You
TTITLE6=Walk Away
TTITLE7=Another Lonely Day
TTITLE8=Roses From My Friends
TTITLE9=Glory and Consequence
TTITLE10=She´s only Happy in the Sun
TTITLE11=With my Own Two Hands
TTITLE12=Boa Sorte/Good Luck
EXTD=YEAR: 2007
EXTT0=
EXTT1=
EXTT2=
EXTT3=
EXTT4=
EXTT5=
EXTT6=
EXTT7=
EXTT8=
EXTT9=
EXTT10=
EXTT11=
EXTT12=
PLAYORDER=
